<?xml version="1.0" encoding="UTF-8" standalone="no"?>
<!DOCTYPE svg PUBLIC "-//W3C//DTD SVG 1.1//EN"
 "http://www.w3.org/Graphics/SVG/1.1/DTD/svg11.dtd">
<!-- Generated by graphviz version 2.43.0 (0)
 -->
<!-- Title: SkydiveForecastStyled Pages: 1 -->
<svg width="576pt" height="247pt"
 viewBox="0.00 0.00 576.00 247.20" xmlns="http://www.w3.org/2000/svg" xmlns:xlink="http://www.w3.org/1999/xlink">
<g id="graph0" class="graph" transform="scale(0.34 0.34) rotate(0) translate(4 717)">
<title>SkydiveForecastStyled</title>
<polygon fill="white" stroke="transparent" points="-4,4 -4,-717 1676,-717 1676,4 -4,4"/>
<g id="clust1" class="cluster">
<title>cluster_automation</title>
<path fill="#aaaaaa" stroke="#aaaaaa" d="M1364,-316C1364,-316 1576,-316 1576,-316 1582,-316 1588,-322 1588,-328 1588,-328 1588,-693 1588,-693 1588,-699 1582,-705 1576,-705 1576,-705 1364,-705 1364,-705 1358,-705 1352,-699 1352,-693 1352,-693 1352,-328 1352,-328 1352,-322 1358,-316 1364,-316"/>
<text text-anchor="middle" x="1470" y="-685" font-family="Times,serif" font-size="20.00">⚙️ Automation</text>
</g>
<g id="clust2" class="cluster">
<title>cluster_frontend</title>
<path fill="#ffcc66" stroke="#ffcc66" d="M20,-310C20,-310 254,-310 254,-310 260,-310 266,-316 266,-322 266,-322 266,-688.8 266,-688.8 266,-694.8 260,-700.8 254,-700.8 254,-700.8 20,-700.8 20,-700.8 14,-700.8 8,-694.8 8,-688.8 8,-688.8 8,-322 8,-322 8,-316 14,-310 20,-310"/>
<text text-anchor="middle" x="137" y="-680.8" font-family="Times,serif" font-size="20.00">💻 Frontend</text>
</g>
<g id="clust3" class="cluster">
<title>cluster_backend</title>
<path fill="#66a3ff" stroke="#66a3ff" d="M286,-8C286,-8 1332,-8 1332,-8 1338,-8 1344,-14 1344,-20 1344,-20 1344,-392 1344,-392 1344,-398 1338,-404 1332,-404 1332,-404 286,-404 286,-404 280,-404 274,-398 274,-392 274,-392 274,-20 274,-20 274,-14 280,-8 286,-8"/>
<text text-anchor="middle" x="809" y="-384" font-family="Times,serif" font-size="20.00">☁️ Backend</text>
</g>
<!-- GA -->
<g id="node1" class="node">
<title>GA</title>
<path fill="#ffffff" stroke="#333333" d="M1525,-667C1525,-667 1415,-667 1415,-667 1409,-667 1403,-661 1403,-655 1403,-655 1403,-631 1403,-631 1403,-625 1409,-619 1415,-619 1415,-619 1525,-619 1525,-619 1531,-619 1537,-625 1537,-631 1537,-631 1537,-655 1537,-655 1537,-661 1531,-667 1525,-667"/>
<text text-anchor="middle" x="1470" y="-648.6" font-family="Arial" font-size="18.00">GitHub Actions</text>
<text text-anchor="middle" x="1470" y="-628.6" font-family="Arial" font-size="18.00">(CI/CD)</text>
</g>
<!-- Scraper -->
<g id="node2" class="node">
<title>Scraper</title>
<path fill="#ffffff" stroke="#333333" d="M1568.5,-518C1568.5,-518 1371.5,-518 1371.5,-518 1365.5,-518 1359.5,-512 1359.5,-506 1359.5,-506 1359.5,-482 1359.5,-482 1359.5,-476 1365.5,-470 1371.5,-470 1371.5,-470 1568.5,-470 1568.5,-470 1574.5,-470 1580.5,-476 1580.5,-482 1580.5,-482 1580.5,-506 1580.5,-506 1580.5,-512 1574.5,-518 1568.5,-518"/>
<text text-anchor="middle" x="1470" y="-499.6" font-family="Arial" font-size="18.00">Python Scraper</text>
<text text-anchor="middle" x="1470" y="-479.6" font-family="Arial" font-size="18.00">(Playwright + Google API)</text>
</g>
<!-- GA&#45;&gt;Scraper -->
<g id="edge1" class="edge">
<title>GA&#45;&gt;Scraper</title>
<path fill="none" stroke="black" d="M1470,-618.71C1470,-594.41 1470,-556.08 1470,-528.53"/>
<polygon fill="black" stroke="black" points="1473.5,-528.18 1470,-518.18 1466.5,-528.18 1473.5,-528.18"/>
</g>
<!-- ReactApp -->
<g id="node5" class="node">
<title>ReactApp</title>
<path fill="#ffffff" stroke="#333333" d="M246,-518C246,-518 28,-518 28,-518 22,-518 16,-512 16,-506 16,-506 16,-482 16,-482 16,-476 22,-470 28,-470 28,-470 246,-470 246,-470 252,-470 258,-476 258,-482 258,-482 258,-506 258,-506 258,-512 252,-518 246,-518"/>
<text text-anchor="middle" x="137" y="-499.6" font-family="Arial" font-size="18.00">React + TypeScript + Router</text>
<text text-anchor="middle" x="137" y="-479.6" font-family="Arial" font-size="18.00">(GitHub Pages)</text>
</g>
<!-- GA&#45;&gt;ReactApp -->
<g id="edge11" class="edge">
<title>GA&#45;&gt;ReactApp</title>
<path fill="none" stroke="#555555" stroke-dasharray="5,2" d="M1402.98,-634.61C1193.4,-611.5 547.78,-540.3 268.26,-509.47"/>
<polygon fill="#555555" stroke="#555555" points="268.39,-505.97 258.06,-508.35 267.62,-512.93 268.39,-505.97"/>
<text text-anchor="middle" x="905" y="-564.8" font-family="Times,serif" font-size="14.00">Builds &amp; Deploys</text>
</g>
<!-- Lambda -->
<g id="node8" class="node">
<title>Lambda</title>
<path fill="#ffffff" stroke="#333333" d="M952.5,-231C952.5,-231 811.5,-231 811.5,-231 805.5,-231 799.5,-225 799.5,-219 799.5,-219 799.5,-195 799.5,-195 799.5,-189 805.5,-183 811.5,-183 811.5,-183 952.5,-183 952.5,-183 958.5,-183 964.5,-189 964.5,-195 964.5,-195 964.5,-219 964.5,-219 964.5,-225 958.5,-231 952.5,-231"/>
<text text-anchor="middle" x="882" y="-212.6" font-family="Arial" font-size="18.00">AWS Lambda</text>
<text text-anchor="middle" x="882" y="-192.6" font-family="Arial" font-size="18.00">(Python + Pandas)</text>
</g>
<!-- GA&#45;&gt;Lambda -->
<g id="edge12" class="edge">
<title>GA&#45;&gt;Lambda</title>
<path fill="none" stroke="#555555" stroke-dasharray="5,2" d="M1514.23,-618.98C1549.36,-597.95 1595.96,-563.27 1617,-518 1653.27,-439.96 1553.86,-322.98 1536,-310 1448.16,-246.17 1133.63,-220.99 974.95,-212.19"/>
<polygon fill="#555555" stroke="#555555" points="974.9,-208.68 964.73,-211.63 974.52,-215.67 974.9,-208.68"/>
<text text-anchor="middle" x="1643" y="-415.8" font-family="Times,serif" font-size="14.00">Deploys</text>
</g>
<!-- DZ -->
<g id="node3" class="node">
<title>DZ</title>
<polygon fill="#fff7cc" stroke="#333333" points="1493.5,-360 1372.5,-360 1372.5,-324 1499.5,-324 1499.5,-354 1493.5,-360"/>
<polyline fill="none" stroke="#333333" points="1493.5,-360 1493.5,-354 "/>
<polyline fill="none" stroke="#333333" points="1499.5,-354 1493.5,-354 "/>
<text text-anchor="middle" x="1436" y="-338.2" font-family="Arial" font-size="16.00">dropzones.json</text>
</g>
<!-- Scraper&#45;&gt;DZ -->
<g id="edge2" class="edge">
<title>Scraper&#45;&gt;DZ</title>
<path fill="none" stroke="black" d="M1464.76,-469.89C1458.68,-443.07 1448.67,-398.9 1442.21,-370.38"/>
<polygon fill="black" stroke="black" points="1445.54,-369.27 1439.92,-360.29 1438.72,-370.82 1445.54,-369.27"/>
</g>
<!-- User -->
<g id="node4" class="node">
<title>User</title>
<ellipse fill="#ffffff" stroke="#333333" cx="137" cy="-643" rx="109.7" ry="19.6"/>
<text text-anchor="middle" x="137" y="-638.6" font-family="Arial" font-size="18.00">🪂 Skydiver User</text>
</g>
<!-- User&#45;&gt;ReactApp -->
<g id="edge3" class="edge">
<title>User&#45;&gt;ReactApp</title>
<path fill="none" stroke="black" d="M137,-623.08C137,-599.19 137,-557.66 137,-528.38"/>
<polygon fill="black" stroke="black" points="140.5,-528.2 137,-518.2 133.5,-528.2 140.5,-528.2"/>
</g>
<!-- ReactApp&#45;&gt;DZ -->
<g id="edge5" class="edge">
<title>ReactApp&#45;&gt;DZ</title>
<path fill="none" stroke="black" d="M258.04,-493.47C526.52,-493.03 1163.87,-483.36 1362,-404 1381.77,-396.08 1400.25,-380.85 1413.81,-367.59"/>
<polygon fill="black" stroke="black" points="1416.67,-369.66 1421.19,-360.08 1411.68,-364.76 1416.67,-369.66"/>
</g>
<!-- Recharts -->
<g id="node6" class="node">
<title>Recharts</title>
<path fill="#ffffff" stroke="#333333" d="M233,-366C233,-366 41,-366 41,-366 35,-366 29,-360 29,-354 29,-354 29,-330 29,-330 29,-324 35,-318 41,-318 41,-318 233,-318 233,-318 239,-318 245,-324 245,-330 245,-330 245,-354 245,-354 245,-360 239,-366 233,-366"/>
<text text-anchor="middle" x="137" y="-347.6" font-family="Arial" font-size="18.00">Recharts Visualizations</text>
<text text-anchor="middle" x="137" y="-327.6" font-family="Arial" font-size="18.00">(Bar Charts + Heatmaps)</text>
</g>
<!-- ReactApp&#45;&gt;Recharts -->
<g id="edge4" class="edge">
<title>ReactApp&#45;&gt;Recharts</title>
<path fill="none" stroke="black" d="M137,-469.89C137,-444.97 137,-405.05 137,-376.65"/>
<polygon fill="black" stroke="black" points="140.5,-376.38 137,-366.38 133.5,-376.38 140.5,-376.38"/>
</g>
<!-- APIGW -->
<g id="node7" class="node">
<title>APIGW</title>
<path fill="#ffffff" stroke="#333333" d="M690,-366C690,-366 548,-366 548,-366 542,-366 536,-360 536,-354 536,-354 536,-330 536,-330 536,-324 542,-318 548,-318 548,-318 690,-318 690,-318 696,-318 702,-324 702,-330 702,-330 702,-354 702,-354 702,-360 696,-366 690,-366"/>
<text text-anchor="middle" x="619" y="-347.6" font-family="Arial" font-size="18.00">AWS API Gateway</text>
<text text-anchor="middle" x="619" y="-327.6" font-family="Arial" font-size="18.00">(HTTP API)</text>
</g>
<!-- ReactApp&#45;&gt;APIGW -->
<g id="edge10" class="edge">
<title>ReactApp&#45;&gt;APIGW</title>
<path fill="none" stroke="#3333cc" stroke-width="2" d="M210.99,-469.97C298.45,-442.76 443.65,-397.57 535.18,-369.08"/>
<polygon fill="#3333cc" stroke="#3333cc" stroke-width="2" points="536.46,-372.35 544.97,-366.04 534.38,-365.67 536.46,-372.35"/>
</g>
<!-- APIGW&#45;&gt;Lambda -->
<g id="edge6" class="edge">
<title>APIGW&#45;&gt;Lambda</title>
<path fill="none" stroke="black" d="M664.51,-317.99C709.68,-295.15 778.94,-260.12 827.12,-235.75"/>
<polygon fill="black" stroke="black" points="828.82,-238.82 836.16,-231.18 825.66,-232.57 828.82,-238.82"/>
</g>
<!-- Tasks -->
<g id="node9" class="node">
<title>Tasks</title>
<polygon fill="#fff7cc" stroke="#333333" points="690,-96 282,-96 282,-16 696,-16 696,-90 690,-96"/>
<polyline fill="none" stroke="#333333" points="690,-96 690,-90 "/>
<polyline fill="none" stroke="#333333" points="696,-90 690,-90 "/>
<text text-anchor="middle" x="489" y="-79.2" font-family="Arial" font-size="16.00">• Fetches Open&#45;Meteo weather</text>
<text text-anchor="middle" x="489" y="-61.2" font-family="Arial" font-size="16.00">• Converts km/h → mph</text>
<text text-anchor="middle" x="489" y="-43.2" font-family="Arial" font-size="16.00">• Applies safety rules</text>
<text text-anchor="middle" x="489" y="-25.2" font-family="Arial" font-size="16.00">• Summarizes insights (avg temp, wind, jumpable days)</text>
</g>
<!-- Lambda&#45;&gt;Tasks -->
<g id="edge7" class="edge">
<title>Lambda&#45;&gt;Tasks</title>
<path fill="none" stroke="black" d="M821.02,-182.88C762.63,-160.74 673.11,-126.8 601.73,-99.74"/>
<polygon fill="black" stroke="black" points="602.82,-96.41 592.23,-96.14 600.34,-102.96 602.82,-96.41"/>
</g>
<!-- Analytics -->
<g id="node10" class="node">
<title>Analytics</title>
<polygon fill="#fff7cc" stroke="#333333" points="990,-78 768,-78 768,-34 996,-34 996,-72 990,-78"/>
<polyline fill="none" stroke="#333333" points="990,-78 990,-72 "/>
<polyline fill="none" stroke="#333333" points="996,-72 990,-72 "/>
<text text-anchor="middle" x="882" y="-61.2" font-family="Arial" font-size="16.00">Analytics JSON</text>
<text text-anchor="middle" x="882" y="-43.2" font-family="Arial" font-size="16.00">(Forecast + Stats + Heatmap)</text>
</g>
<!-- Lambda&#45;&gt;Analytics -->
<g id="edge9" class="edge">
<title>Lambda&#45;&gt;Analytics</title>
<path fill="none" stroke="black" d="M882,-182.72C882,-157.32 882,-116.52 882,-88.32"/>
<polygon fill="black" stroke="black" points="885.5,-88.19 882,-78.19 878.5,-88.19 885.5,-88.19"/>
</g>
<!-- OpenMeteo -->
<g id="node11" class="node">
<title>OpenMeteo</title>
<ellipse fill="#ffffff" stroke="#333333" cx="1202" cy="-56" rx="134.2" ry="33.88"/>
<text text-anchor="middle" x="1202" y="-61.6" font-family="Arial" font-size="18.00">Open&#45;Meteo API 🌤️</text>
<text text-anchor="middle" x="1202" y="-41.6" font-family="Arial" font-size="18.00">(external data source)</text>
</g>
<!-- Lambda&#45;&gt;OpenMeteo -->
<g id="edge8" class="edge">
<title>Lambda&#45;&gt;OpenMeteo</title>
<path fill="none" stroke="black" d="M931.65,-182.88C984.92,-158.08 1070,-118.46 1130.48,-90.3"/>
<polygon fill="black" stroke="black" points="1132,-93.45 1139.59,-86.06 1129.05,-87.11 1132,-93.45"/>
</g>
</g>
</svg>
